name rise49.25peak52.1432fall72.8391.mot
datacolumns 19
datarows 11
range 12.07829900000000 12.09494800000000
endheader
time	ground_force1_vx	ground_force1_vy	ground_force1_vz	ground_force1_px	ground_force1_py	ground_force1_pz	ground_force2_vx	ground_force2_vy	ground_force2_vz	ground_force2_px	ground_force2_py	ground_force2_pz	ground_torque1_x	ground_torque1_y	ground_torque1_z	ground_torque2_x	ground_torque2_y	ground_torque2_z	
12.07829900000000	-3.22046100000000	40.66041900000000	-10.07338700000000	0.33353000000000	0.00000000000000	0.08260400000000	-59.34397100000000	811.31595700000003	-45.53990800000000	0.10183200000000	0.00000000000000	-0.08807400000000	0.00000000000000	-7.24705700000000	0.00000000000000	0.00000000000000	-17.66792400000000	0.00000000000000	
12.07995800000000	-3.53873100000000	47.42406000000000	-11.39202600000000	0.33730600000000	0.00000000000000	0.08337200000000	-60.19484600000000	809.57374000000004	-45.19103900000000	0.10087700000000	0.00000000000000	-0.08794700000000	0.00000000000000	-8.25076100000000	0.00000000000000	0.00000000000000	-17.64094100000000	0.00000000000000	
12.08161700000000	-3.79356000000000	54.20895300000000	-12.61357900000000	0.34073000000000	0.00000000000000	0.08408800000000	-61.05824600000000	807.71243000000004	-44.83066200000000	0.09992200000000	0.00000000000000	-0.08781700000000	0.00000000000000	-9.19429700000000	0.00000000000000	0.00000000000000	-17.61691700000000	0.00000000000000	
12.08329300000000	-3.97434700000000	60.92165300000000	-13.71153600000000	0.34385900000000	0.00000000000000	0.08475800000000	-61.93353800000000	805.72882200000004	-44.45861900000000	0.09896800000000	0.00000000000000	-0.08768500000000	0.00000000000000	-10.05745200000000	0.00000000000000	0.00000000000000	-17.59582900000000	0.00000000000000	
12.08494800000000	-4.07384500000000	67.49264700000001	-14.66785400000000	0.34673500000000	0.00000000000000	0.08538900000000	-62.82000000000000	803.61966199999995	-44.07475100000000	0.09801700000000	0.00000000000000	-0.08755100000000	0.00000000000000	-10.82610700000000	0.00000000000000	0.00000000000000	-17.57763500000000	0.00000000000000	
12.08661900000000	-4.08818100000000	73.87829800000000	-15.47314000000000	0.34939600000000	0.00000000000000	0.08598400000000	-63.71681700000000	801.38166100000001	-43.67889800000000	0.09706800000000	0.00000000000000	-0.08741500000000	0.00000000000000	-11.49246800000000	0.00000000000000	0.00000000000000	-17.56227300000000	0.00000000000000	
12.08829300000000	-4.01660400000000	80.06034300000000	-16.12610000000000	0.35187100000000	0.00000000000000	0.08654800000000	-64.62308100000000	799.01149799999996	-43.27090100000000	0.09612100000000	0.00000000000000	-0.08727500000000	0.00000000000000	-12.05473900000000	0.00000000000000	0.00000000000000	-17.54965900000000	0.00000000000000	
12.08995100000000	-3.86102400000000	86.04338300000001	-16.63241400000000	0.35418500000000	0.00000000000000	0.08708500000000	-65.53779100000000	796.50583300000005	-42.85060600000000	0.09517900000000	0.00000000000000	-0.08713400000000	0.00000000000000	-12.51634900000000	0.00000000000000	0.00000000000000	-17.53969000000000	0.00000000000000	
12.09162600000000	-3.62542000000000	91.85094300000000	-17.00323300000000	0.35635900000000	0.00000000000000	0.08759600000000	-66.45985200000000	793.86131200000000	-42.41786300000000	0.09424100000000	0.00000000000000	-0.08699000000000	0.00000000000000	-12.88489800000000	0.00000000000000	0.00000000000000	-17.53224300000000	0.00000000000000	
12.09329800000000	-3.31518100000000	97.52065100000000	-17.25349800000000	0.35840900000000	0.00000000000000	0.08808400000000	-67.38807300000001	791.07458299999996	-41.97252700000000	0.09330800000000	0.00000000000000	-0.08684300000000	0.00000000000000	-13.17092500000000	0.00000000000000	0.00000000000000	-17.52717500000000	0.00000000000000	
12.09494800000000	-2.93646800000000	103.09911300000000	-17.40023100000000	0.36035000000000	0.00000000000000	0.08855200000000	-68.32117300000000	788.14230399999997	-41.51446500000000	0.09238000000000	0.00000000000000	-0.08669400000000	0.00000000000000	-13.38665600000000	0.00000000000000	0.00000000000000	-17.52432000000000	0.00000000000000	
